<svg xmlns="http://www.w3.org/2000/svg" width="24" height="24" viewBox="0 0 24 24" fill="none">
  <g clip-path="url(#clip0_1_111)">
    <path d="M22.6796 0.320191C21.7998 -0.559882 20.7397 -1 19.5002 -1H4.50012C3.26065 -1 2.20058 -0.559882 1.32034 0.320191C0.440271 1.20043 0.000152588 2.26044 0.000152588 3.49997V18.4999C0.000152588 19.7393 0.440271 20.7994 1.32034 21.6797C2.20058 22.5599 3.26065 23 4.50012 23H19.5001C20.7395 23 21.7996 22.5599 22.6795 21.6797C23.5597 20.7994 23.9998 19.7394 23.9998 18.4999V3.49997C23.9998 2.26044 23.5596 1.20026 22.6796 0.320191ZM18.3595 8.23444C18.3699 8.32819 18.3752 8.46856 18.3752 8.65639C18.3752 9.53143 18.2475 10.409 17.9924 11.289C17.7373 12.1694 17.3466 13.0131 16.8204 13.8204C16.2947 14.6275 15.6671 15.3413 14.938 15.961C14.2087 16.5805 13.3339 17.0756 12.3128 17.4451C11.2922 17.8151 10.1983 18.0002 9.03172 18.0002C7.21937 18.0002 5.5423 17.5103 4.00057 16.5315C4.25057 16.5626 4.51112 16.5783 4.78181 16.5783C6.29228 16.5783 7.65166 16.1096 8.86004 15.1718C8.15182 15.1617 7.51889 14.9431 6.96166 14.5156C6.40426 14.0885 6.01635 13.5469 5.79755 12.8907C6.06828 12.9322 6.27138 12.9529 6.40677 12.9529C6.63592 12.9529 6.90162 12.9113 7.20361 12.8282C6.44322 12.6821 5.80269 12.3049 5.28185 11.6955C4.7609 11.086 4.50051 10.3908 4.50051 9.60958V9.57833C5.05243 9.83856 5.57327 9.97395 6.06292 9.98452C5.11499 9.34897 4.64105 8.43764 4.64105 7.25017C4.64105 6.66677 4.79198 6.11474 5.09408 5.59389C5.91691 6.60438 6.91711 7.41156 8.09402 8.0157C9.27105 8.61978 10.5316 8.95849 11.8753 9.03133C11.8233 8.83343 11.7972 8.58333 11.7972 8.28134C11.7972 7.37495 12.1175 6.60165 12.7582 5.96095C13.3987 5.32031 14.1722 4.99988 15.0783 4.99988C16.0368 4.99988 16.8339 5.34374 17.4692 6.03128C18.188 5.89588 18.8862 5.63012 19.5631 5.23444C19.3028 6.03631 18.8181 6.64576 18.1101 7.06245C18.787 6.96854 19.417 6.79155 20.0002 6.53116C19.5628 7.19779 19.0157 7.76548 18.3595 8.23444Z" fill="#F2F2F2"/>
  </g>
  <defs>
    <clipPath id="clip0_1_111">
      <rect width="24" height="24" fill="white"/>
    </clipPath>
  </defs>
</svg>